<?xml version="1.0" encoding="UTF-8" standalone="no"?>
<!-- Created with Inkscape (http://www.inkscape.org/) -->

<svg
   width="60.689999mm"
   height="128.5mm"
   viewBox="0 0 60.689999 128.5"
   version="1.1"
   id="svg1"
   sodipodi:docname="alt_6inverter.svg"
   inkscape:version="1.3.2 (091e20ef0f, 2023-11-25, custom)"
   xmlns:inkscape="http://www.inkscape.org/namespaces/inkscape"
   xmlns:sodipodi="http://sodipodi.sourceforge.net/DTD/sodipodi-0.dtd"
   xmlns="http://www.w3.org/2000/svg"
   xmlns:svg="http://www.w3.org/2000/svg">
  <sodipodi:namedview
     id="namedview1"
     pagecolor="#ffffff"
     bordercolor="#000000"
     borderopacity="0.25"
     inkscape:showpageshadow="2"
     inkscape:pageopacity="0.0"
     inkscape:pagecheckerboard="false"
     inkscape:deskcolor="#d1d1d1"
     inkscape:document-units="mm"
     showguides="true"
     inkscape:zoom="1.8473111"
     inkscape:cx="111.7841"
     inkscape:cy="255.23584"
     inkscape:window-width="1339"
     inkscape:window-height="1212"
     inkscape:window-x="69"
     inkscape:window-y="694"
     inkscape:window-maximized="0"
     inkscape:current-layer="layer6" />
  <defs
     id="defs1" />
  <g
     inkscape:groupmode="layer"
     id="layer2"
     inkscape:label="thru-holes"
     style="display:inline">
    <g
       inkscape:groupmode="layer"
       id="layer4"
       inkscape:label="Set1 holes"
       style="display:inline">
      <circle
         style="display:inline;fill:#000000;stroke-width:0.224881"
         id="path14"
         cx="17.649996"
         cy="12.595834"
         r="3.125"
         inkscape:label="in 1" />
      <circle
         style="display:inline;fill:#000000;stroke-width:0.224881"
         id="path14-1"
         cx="17.649996"
         cy="22.975"
         r="3.125"
         inkscape:label="in 2" />
      <circle
         style="display:inline;fill:#000000;stroke-width:0.224881"
         id="path14-0"
         cx="17.649996"
         cy="32.825001"
         r="3.125"
         inkscape:label="in 3" />
      <circle
         style="display:inline;fill:#000000;stroke-width:0.224881"
         id="path14-2"
         cx="41.51252"
         cy="12.595834"
         r="3.125"
         inkscape:label="AND out" />
      <circle
         style="display:inline;fill:#000000;stroke-width:0.224881"
         id="path14-1-6"
         cx="41.51252"
         cy="22.975"
         r="3.125"
         inkscape:label="OR out" />
      <circle
         style="display:inline;fill:#000000;stroke-width:0.224881"
         id="path14-0-6"
         cx="41.51252"
         cy="32.825001"
         r="3.125"
         inkscape:label="XOR out" />
      <ellipse
         style="display:inline;fill:#000000;stroke-width:0.170891"
         id="path14-0-6-9"
         cx="50.74966"
         cy="32.99017"
         inkscape:label="XOR LED"
         rx="2.375"
         ry="2.3745542" />
      <ellipse
         style="display:inline;fill:#000000;stroke-width:0.170891"
         id="path14-0-6-9-1"
         cx="50.74966"
         cy="23.00654"
         inkscape:label="OR LED"
         rx="2.375"
         ry="2.3745542" />
      <ellipse
         style="display:inline;fill:#000000;stroke-width:0.170891"
         id="path14-0-6-9-1-7"
         cx="50.74966"
         cy="13.098286"
         inkscape:label="AND  LED"
         rx="2.375"
         ry="2.3745542" />
    </g>
    <g
       inkscape:groupmode="layer"
       id="g71"
       inkscape:label="Set2 holes"
       style="display:inline">
      <circle
         style="display:inline;fill:#000000;stroke-width:0.224881"
         id="circle63"
         cx="17.649996"
         cy="43.287521"
         r="3.125"
         inkscape:label="in 1" />
      <circle
         style="display:inline;fill:#000000;stroke-width:0.224881"
         id="circle64"
         cx="17.649996"
         cy="53.137527"
         r="3.125"
         inkscape:label="in 2" />
      <circle
         style="display:inline;fill:#000000;stroke-width:0.224881"
         id="circle65"
         cx="17.649996"
         cy="62.987526"
         r="3.125"
         inkscape:label="in 3" />
      <circle
         style="display:inline;fill:#000000;stroke-width:0.224881"
         id="circle66"
         cx="41.51252"
         cy="43.287521"
         r="3.125"
         inkscape:label="AND out" />
      <circle
         style="display:inline;fill:#000000;stroke-width:0.224881"
         id="circle67"
         cx="41.51252"
         cy="53.137527"
         r="3.125"
         inkscape:label="OR out" />
      <circle
         style="display:inline;fill:#000000;stroke-width:0.224881"
         id="circle68"
         cx="41.51252"
         cy="62.987526"
         r="3.125"
         inkscape:label="XOR out" />
      <ellipse
         style="display:inline;fill:#000000;stroke-width:0.170891"
         id="circle69"
         cx="50.74966"
         cy="62.928505"
         inkscape:label="XOR LED"
         rx="2.375"
         ry="2.3745542" />
      <ellipse
         style="display:inline;fill:#000000;stroke-width:0.170891"
         id="circle70"
         cx="50.74966"
         cy="53.153759"
         inkscape:label="OR LED"
         rx="2.375"
         ry="2.3745542" />
      <ellipse
         style="display:inline;fill:#000000;stroke-width:0.170891"
         id="circle71"
         cx="50.74966"
         cy="43.379013"
         inkscape:label="AND  LED"
         rx="2.375"
         ry="2.3745542" />
    </g>
    <g
       inkscape:groupmode="layer"
       id="g80"
       inkscape:label="Set3 holes"
       style="display:inline">
      <circle
         style="display:inline;fill:#000000;stroke-width:0.224881"
         id="circle72"
         cx="17.649996"
         cy="73.979218"
         r="3.125"
         inkscape:label="in 1" />
      <circle
         style="display:inline;fill:#000000;stroke-width:0.224881"
         id="circle73"
         cx="17.649996"
         cy="83.829224"
         r="3.125"
         inkscape:label="in 2" />
      <circle
         style="display:inline;fill:#000000;stroke-width:0.224881"
         id="circle74"
         cx="17.649996"
         cy="93.679237"
         r="3.125"
         inkscape:label="in 3" />
      <circle
         style="display:inline;fill:#000000;stroke-width:0.224881"
         id="circle75"
         cx="41.51252"
         cy="73.979218"
         r="3.125"
         inkscape:label="AND out" />
      <circle
         style="display:inline;fill:#000000;stroke-width:0.224881"
         id="circle76"
         cx="41.51252"
         cy="83.829224"
         r="3.125"
         inkscape:label="OR out" />
      <circle
         style="display:inline;fill:#000000;stroke-width:0.224881"
         id="circle77"
         cx="41.51252"
         cy="93.679237"
         r="3.125"
         inkscape:label="XOR out" />
      <ellipse
         style="display:inline;fill:#000000;stroke-width:0.169786"
         id="circle78"
         cx="50.74966"
         cy="93.707726"
         inkscape:label="XOR LED"
         rx="2.375"
         ry="2.3438771" />
      <ellipse
         style="display:inline;fill:#000000;stroke-width:0.170891"
         id="circle79"
         cx="50.74966"
         cy="83.830147"
         inkscape:label="OR LED"
         rx="2.375"
         ry="2.3745542" />
      <ellipse
         style="display:inline;fill:#000000;stroke-width:0.170891"
         id="circle80"
         cx="50.74966"
         cy="73.659744"
         inkscape:label="AND  LED"
         rx="2.375"
         ry="2.3745542" />
    </g>
    <g
       inkscape:groupmode="layer"
       id="layer5"
       inkscape:label="inverters">
      <circle
         style="display:inline;fill:#000000;stroke-width:0.224881"
         id="circle72-2"
         cx="-104.0958"
         cy="5.5878973"
         r="3.125"
         inkscape:label="inv1 in"
         transform="rotate(-90)" />
      <circle
         style="display:inline;fill:#000000;stroke-width:0.224881"
         id="circle73-9"
         cx="-104.0958"
         cy="15.437891"
         r="3.125"
         inkscape:label="inv1 out"
         transform="rotate(-90)" />
      <circle
         style="display:inline;fill:#000000;stroke-width:0.224881"
         id="circle72-2-7"
         cx="-104.09535"
         cy="25.522772"
         r="3.125"
         inkscape:label="inv2 in"
         transform="rotate(-90)" />
      <circle
         style="display:inline;fill:#000000;stroke-width:0.224881"
         id="circle73-9-85"
         cx="-104.09535"
         cy="35.372761"
         r="3.125"
         inkscape:label="inv2 out"
         transform="rotate(-90)" />
      <circle
         style="display:inline;fill:#000000;stroke-width:0.224881"
         id="circle72-2-4"
         cx="-104.09554"
         cy="45.457642"
         r="3.125"
         inkscape:label="inv3 in"
         transform="rotate(-90)" />
      <circle
         style="display:inline;fill:#000000;stroke-width:0.224881"
         id="circle73-9-8"
         cx="-104.09554"
         cy="55.307632"
         r="3.125"
         inkscape:label="inv3 out"
         transform="rotate(-90)" />
      <circle
         style="display:inline;fill:#000000;stroke-width:0.224881"
         id="circle72-2-9"
         cx="-115.21246"
         cy="5.5878983"
         r="3.125"
         inkscape:label="inv4 in"
         transform="rotate(-90)" />
      <circle
         style="display:inline;fill:#000000;stroke-width:0.224881"
         id="circle73-9-7"
         cx="-115.21246"
         cy="15.437893"
         r="3.125"
         inkscape:label="inv4 out"
         transform="rotate(-90)" />
      <circle
         style="display:inline;fill:#000000;stroke-width:0.224881"
         id="circle72-2-7-7"
         cx="-115.21198"
         cy="25.522774"
         r="3.125"
         inkscape:label="inv5 in"
         transform="rotate(-90)" />
      <circle
         style="display:inline;fill:#000000;stroke-width:0.224881"
         id="circle73-9-85-6"
         cx="-115.21198"
         cy="35.372765"
         r="3.125"
         inkscape:label="inv5 out"
         transform="rotate(-90)" />
      <circle
         style="display:inline;fill:#000000;stroke-width:0.224881"
         id="circle72-2-4-4"
         cx="-115.21217"
         cy="45.457642"
         r="3.125"
         inkscape:label="inv6 in"
         transform="rotate(-90)" />
      <circle
         style="display:inline;fill:#000000;stroke-width:0.224881"
         id="circle73-9-8-3"
         cx="-115.21217"
         cy="55.307632"
         r="3.125"
         inkscape:label="inv6 out"
         transform="rotate(-90)" />
    </g>
    <rect
       style="display:inline;fill:#000000;stroke-width:0.164678"
       id="rect91"
       width="6.4000001"
       height="3.2"
       x="1.6125"
       y="1.73"
       ry="1.6" />
    <rect
       style="display:inline;fill:#000000;stroke-width:0.164678"
       id="rect91-7"
       width="6.4000001"
       height="3.2"
       x="52.855255"
       y="1.73"
       ry="1.6" />
    <rect
       style="display:inline;fill:#000000;stroke-width:0.164678"
       id="rect91-75"
       width="6.4000001"
       height="3.2"
       x="1.62"
       y="123.57"
       ry="1.6" />
    <rect
       style="display:inline;fill:#000000;stroke-width:0.164678"
       id="rect91-7-9"
       width="6.4000001"
       height="3.2"
       x="52.862759"
       y="123.57"
       ry="1.6" />
  </g>
  <g
     inkscape:label="labels"
     inkscape:groupmode="layer"
     id="layer1"
     style="display:inline">
    <g
       inkscape:groupmode="layer"
       id="layer3"
       inkscape:label="Set1"
       style="display:inline">
      <text
         xml:space="preserve"
         style="font-style:normal;font-variant:normal;font-weight:normal;font-stretch:normal;font-size:7.76111px;font-family:'FiraCode Nerd Font Mono';-inkscape-font-specification:'FiraCode Nerd Font Mono, Normal';font-variant-ligatures:normal;font-variant-caps:normal;font-variant-numeric:normal;font-variant-east-asian:normal;fill:#000000;stroke-width:0.264583"
         x="31.563517"
         y="35.248306"
         id="text14"
         inkscape:label="XOR"><tspan
           sodipodi:role="line"
           id="tspan14"
           style="font-style:normal;font-variant:normal;font-weight:normal;font-stretch:normal;font-size:7.76111px;font-family:'FiraCode Nerd Font Mono';-inkscape-font-specification:'FiraCode Nerd Font Mono, Normal';font-variant-ligatures:normal;font-variant-caps:normal;font-variant-numeric:normal;font-variant-east-asian:normal;stroke-width:0.264583"
           x="31.563517"
           y="35.248306">⊕</tspan></text>
      <text
         xml:space="preserve"
         style="font-style:normal;font-variant:normal;font-weight:normal;font-stretch:normal;font-size:5.99723px;font-family:'FiraCode Nerd Font Mono';-inkscape-font-specification:'FiraCode Nerd Font Mono, Normal';font-variant-ligatures:normal;font-variant-caps:normal;font-variant-numeric:normal;font-variant-east-asian:normal;fill:#000000;stroke-width:0.264583"
         x="30.910015"
         y="25.138042"
         id="text9"
         inkscape:label="OR"><tspan
           sodipodi:role="line"
           id="tspan9"
           style="stroke-width:0.264583"
           x="30.910015"
           y="25.138042">\/</tspan></text>
      <text
         xml:space="preserve"
         style="font-style:normal;font-variant:normal;font-weight:normal;font-stretch:normal;font-size:5.99723px;font-family:'FiraCode Nerd Font Mono';-inkscape-font-specification:'FiraCode Nerd Font Mono, Normal';font-variant-ligatures:normal;font-variant-caps:normal;font-variant-numeric:normal;font-variant-east-asian:normal;fill:#000000;stroke-width:0.264583"
         x="30.895464"
         y="15.238043"
         id="text8"
         inkscape:label="AND"><tspan
           sodipodi:role="line"
           id="tspan8"
           style="stroke-width:0.264583"
           x="30.895464"
           y="15.238043">/\</tspan></text>
      <path
         id="text24-0"
         style="font-size:5.99723px;font-family:'FiraCode Nerd Font Mono';-inkscape-font-specification:'FiraCode Nerd Font Mono, Normal';stroke-width:0.264583"
         d="m 13.569816,32.813738 -1.703829,1.903736 -0.42442,-0.359834 0.805782,-0.885745 q 0.123021,-0.132246 0.227588,-0.230663 0.107642,-0.09842 0.221436,-0.172228 H 7.6679252 v -0.510533 h 5.0284478 q -0.132247,-0.08304 -0.215285,-0.159926 -0.08304,-0.07996 -0.233739,-0.242965 l -0.805782,-0.885745 0.42442,-0.359833 z M 7.6743578,12.901518 H 13.566067 V 13.39975 H 7.6743578 Z m 5.8954582,10.062217 -1.703829,1.903736 -0.42442,-0.359833 0.805782,-0.885745 q 0.123021,-0.132247 0.227588,-0.230663 0.107642,-0.09842 0.221436,-0.172228 H 7.6679252 v -0.510533 h 5.0284478 q -0.132247,-0.08304 -0.215285,-0.159927 -0.08304,-0.07996 -0.233739,-0.242964 l -0.805782,-0.885745 0.42442,-0.359834 z M 8.1657324,12.901 l -8e-7,20.165145 H 7.6675 l 8e-7,-20.165145 z"
         inkscape:label="Normalling Indicator" />
      <path
         id="path50"
         d="m 29.190491,20.321843 h -0.54744 v -4.859294 q 0,-0.679686 0.17838,-1.208672 0.175303,-0.528987 0.513608,-0.959557 0.33523,-0.43057 0.861141,-0.864216 l 0.319852,0.319852 q -0.473627,0.433646 -0.753498,0.811933 -0.282946,0.381362 -0.427495,0.836536 -0.144548,0.45825 -0.144548,1.064124 z m -0.54744,7.496538 v -3.982776 q 0,-0.230663 -0.07074,-0.365985 -0.07074,-0.135322 -0.267569,-0.206058 -0.196832,-0.06766 -0.575119,-0.06766 v -0.473627 q 0.378287,0 0.575119,-0.07074 0.196832,-0.06766 0.267569,-0.206059 0.07074,-0.135322 0.07074,-0.365985 v -3.11856 h 0.54744 v 3.137013 q 0,0.289097 -0.06151,0.461325 -0.06151,0.172229 -0.196832,0.264494 -0.138398,0.09534 -0.378287,0.135322 0.230662,0.03998 0.36906,0.138397 0.138398,0.09842 0.202983,0.27372 0.06459,0.175304 0.06459,0.449023 v 3.998154 z m 0.54744,2.637243 q 0,0.60895 0.144548,1.064124 0.144549,0.45825 0.427495,0.836537 0.282947,0.378287 0.753498,0.811933 L 30.19618,33.48807 Q 29.670269,33.054424 29.335039,32.623854 28.99981,32.193283 28.824506,31.664297 28.646127,31.13531 28.646127,30.455624 v -3.998153 h 0.544364 z m -5.223627,-4.859397 h 0.547439 v 4.859294 q 0,0.679686 -0.178379,1.208672 -0.175304,0.528987 -0.513609,0.959557 -0.33523,0.43057 -0.861141,0.864216 l -0.319852,-0.319852 q 0.473627,-0.433646 0.753498,-0.811933 0.282946,-0.381362 0.427495,-0.836536 0.144549,-0.45825 0.144549,-1.064124 z m 0.547439,-7.496538 v 3.982776 q 0,0.230663 0.07074,0.365985 0.07074,0.135322 0.267568,0.206058 0.196833,0.06766 0.575119,0.06766 v 0.473628 q -0.378286,0 -0.575119,0.07074 -0.196832,0.06766 -0.267568,0.206059 -0.07074,0.135322 -0.07074,0.365985 v 3.118559 h -0.547439 v -3.137012 q 0,-0.289097 0.06151,-0.461326 0.06151,-0.172228 0.196832,-0.264493 0.138398,-0.09534 0.378287,-0.135322 -0.230663,-0.03998 -0.369061,-0.138398 -0.138397,-0.09842 -0.202983,-0.273719 -0.06459,-0.175304 -0.06459,-0.449024 v -3.998153 z m -0.547439,-2.637243 q 0,-0.60895 -0.144549,-1.064124 -0.144549,-0.45825 -0.427495,-0.836537 -0.282946,-0.378287 -0.753498,-0.811933 L 22.961174,12.43 q 0.525911,0.433646 0.861141,0.864216 0.33523,0.430571 0.510534,0.959557 0.178379,0.528986 0.178379,1.208673 v 3.998153 h -0.544364 z"
         style="font-size:5.99723px;font-family:'FiraCode Nerd Font Mono';-inkscape-font-specification:'FiraCode Nerd Font Mono, Normal';stroke-width:0.264583"
         inkscape:label="Brackets" />
    </g>
    <g
       inkscape:groupmode="layer"
       id="g83"
       inkscape:label="Set2"
       style="display:inline"
       transform="translate(0,39.158352)">
      <text
         xml:space="preserve"
         style="font-style:normal;font-variant:normal;font-weight:normal;font-stretch:normal;font-size:7.76111px;font-family:'FiraCode Nerd Font Mono';-inkscape-font-specification:'FiraCode Nerd Font Mono, Normal';font-variant-ligatures:normal;font-variant-caps:normal;font-variant-numeric:normal;font-variant-east-asian:normal;fill:#000000;stroke-width:0.264583"
         x="31.563517"
         y="26.252464"
         id="text80"
         inkscape:label="XOR"><tspan
           sodipodi:role="line"
           id="tspan80"
           style="font-style:normal;font-variant:normal;font-weight:normal;font-stretch:normal;font-size:7.76111px;font-family:'FiraCode Nerd Font Mono';-inkscape-font-specification:'FiraCode Nerd Font Mono, Normal';font-variant-ligatures:normal;font-variant-caps:normal;font-variant-numeric:normal;font-variant-east-asian:normal;stroke-width:0.264583"
           x="31.563517"
           y="26.252464">⊕</tspan></text>
      <text
         xml:space="preserve"
         style="font-style:normal;font-variant:normal;font-weight:normal;font-stretch:normal;font-size:5.99723px;font-family:'FiraCode Nerd Font Mono';-inkscape-font-specification:'FiraCode Nerd Font Mono, Normal';font-variant-ligatures:normal;font-variant-caps:normal;font-variant-numeric:normal;font-variant-east-asian:normal;fill:#000000;stroke-width:0.264583"
         x="30.910015"
         y="16.1422"
         id="text81"
         inkscape:label="OR"><tspan
           sodipodi:role="line"
           id="tspan81"
           style="stroke-width:0.264583"
           x="30.910015"
           y="16.1422">\/</tspan></text>
      <text
         xml:space="preserve"
         style="font-style:normal;font-variant:normal;font-weight:normal;font-stretch:normal;font-size:5.99723px;font-family:'FiraCode Nerd Font Mono';-inkscape-font-specification:'FiraCode Nerd Font Mono, Normal';font-variant-ligatures:normal;font-variant-caps:normal;font-variant-numeric:normal;font-variant-east-asian:normal;fill:#000000;stroke-width:0.264583"
         x="30.895464"
         y="6.2422161"
         id="text82"
         inkscape:label="AND"><tspan
           sodipodi:role="line"
           id="tspan82"
           style="stroke-width:0.264583"
           x="30.895464"
           y="6.2422161">/\</tspan></text>
      <path
         id="path82"
         style="font-size:5.99723px;font-family:'FiraCode Nerd Font Mono';-inkscape-font-specification:'FiraCode Nerd Font Mono, Normal';stroke-width:0.264583"
         d="m 13.569816,23.817899 -1.703829,1.903736 -0.42442,-0.359834 0.805782,-0.885745 q 0.123021,-0.132246 0.227588,-0.230663 0.107642,-0.09842 0.221436,-0.172228 H 7.6679252 v -0.510533 h 5.0284478 q -0.132247,-0.08304 -0.215285,-0.159926 -0.08304,-0.07996 -0.233739,-0.242965 l -0.805782,-0.885745 0.42442,-0.359833 z M 7.6743578,3.9056826 H 13.566067 V 4.4039143 H 7.6743578 Z m 5.8954582,10.0622134 -1.703829,1.903736 -0.42442,-0.359833 0.805782,-0.885745 q 0.123021,-0.132247 0.227588,-0.230663 0.107642,-0.09842 0.221436,-0.172228 H 7.6679252 V 13.71263 h 5.0284478 q -0.132247,-0.08304 -0.215285,-0.159927 -0.08304,-0.07996 -0.233739,-0.242964 l -0.805782,-0.885745 0.42442,-0.359834 z M 8.1657324,3.9051646 l -8e-7,20.1651414 H 7.6675 l 8e-7,-20.1651414 z"
         inkscape:label="Normalling Indicator" />
      <path
         id="path83"
         d="m 29.190491,11.326004 h -0.54744 V 6.4667121 q 0,-0.6796857 0.17838,-1.2086714 0.175303,-0.5289867 0.513608,-0.9595564 0.33523,-0.4305697 0.861141,-0.8642154 l 0.319852,0.3198517 Q 30.042405,4.1877663 29.762534,4.5660533 29.479588,4.947415 29.335039,5.4025887 29.190491,5.8608384 29.190491,6.4667121 Z m -0.54744,7.496538 v -3.982776 q 0,-0.230663 -0.07074,-0.365985 -0.07074,-0.135322 -0.267569,-0.206058 -0.196832,-0.06766 -0.575119,-0.06766 v -0.473627 q 0.378287,0 0.575119,-0.07074 0.196832,-0.06766 0.267569,-0.206059 0.07074,-0.135322 0.07074,-0.365985 V 9.9650923 h 0.54744 v 3.1370127 q 0,0.289097 -0.06151,0.461325 -0.06151,0.172229 -0.196832,0.264494 -0.138398,0.09534 -0.378287,0.135322 0.230662,0.03998 0.36906,0.138397 0.138398,0.09842 0.202983,0.27372 0.06459,0.175304 0.06459,0.449023 v 3.998154 z m 0.54744,2.637243 q 0,0.60895 0.144548,1.064124 0.144549,0.45825 0.427495,0.836537 0.282947,0.378287 0.753498,0.811933 L 30.19618,24.492231 Q 29.670269,24.058585 29.335039,23.628015 28.99981,23.197444 28.824506,22.668458 28.646127,22.139471 28.646127,21.459785 v -3.998153 h 0.544364 z m -5.223627,-4.859397 h 0.547439 v 4.859294 q 0,0.679686 -0.178379,1.208672 -0.175304,0.528987 -0.513609,0.959557 -0.33523,0.43057 -0.861141,0.864216 l -0.319852,-0.319852 q 0.473627,-0.433646 0.753498,-0.811933 0.282946,-0.381362 0.427495,-0.836536 0.144549,-0.45825 0.144549,-1.064124 z m 0.547439,-7.4965374 v 3.9827754 q 0,0.230663 0.07074,0.365985 0.07074,0.135322 0.267568,0.206058 0.196833,0.06766 0.575119,0.06766 v 0.473628 q -0.378286,0 -0.575119,0.07074 -0.196832,0.06766 -0.267568,0.206059 -0.07074,0.135322 -0.07074,0.365985 V 17.9613 h -0.547439 v -3.137012 q 0,-0.289097 0.06151,-0.461326 0.06151,-0.172228 0.196832,-0.264493 0.138398,-0.09534 0.378287,-0.135322 -0.230663,-0.03998 -0.369061,-0.138398 -0.138397,-0.09842 -0.202983,-0.273719 -0.06459,-0.175304 -0.06459,-0.449024 V 9.1038536 Z M 23.966864,6.4666091 q 0,-0.6089497 -0.144549,-1.0641234 Q 23.677766,4.944236 23.39482,4.5659493 23.111874,4.1876623 22.641322,3.7540166 l 0.319852,-0.3198517 q 0.525911,0.4336457 0.861141,0.8642154 0.33523,0.4305707 0.510534,0.9595564 0.178379,0.5289857 0.178379,1.2086724 V 10.46476 h -0.544364 z"
         style="font-size:5.99723px;font-family:'FiraCode Nerd Font Mono';-inkscape-font-specification:'FiraCode Nerd Font Mono, Normal';stroke-width:0.264583"
         inkscape:label="Brackets" />
    </g>
    <g
       inkscape:groupmode="layer"
       id="g86"
       inkscape:label="Set3"
       style="display:inline"
       transform="translate(0,39.158352)">
      <text
         xml:space="preserve"
         style="font-style:normal;font-variant:normal;font-weight:normal;font-stretch:normal;font-size:7.76111px;font-family:'FiraCode Nerd Font Mono';-inkscape-font-specification:'FiraCode Nerd Font Mono, Normal';font-variant-ligatures:normal;font-variant-caps:normal;font-variant-numeric:normal;font-variant-east-asian:normal;fill:#000000;stroke-width:0.264583"
         x="31.563517"
         y="56.94416"
         id="text83"
         inkscape:label="XOR"><tspan
           sodipodi:role="line"
           id="tspan83"
           style="font-style:normal;font-variant:normal;font-weight:normal;font-stretch:normal;font-size:7.76111px;font-family:'FiraCode Nerd Font Mono';-inkscape-font-specification:'FiraCode Nerd Font Mono, Normal';font-variant-ligatures:normal;font-variant-caps:normal;font-variant-numeric:normal;font-variant-east-asian:normal;stroke-width:0.264583"
           x="31.563517"
           y="56.94416">⊕</tspan></text>
      <text
         xml:space="preserve"
         style="font-style:normal;font-variant:normal;font-weight:normal;font-stretch:normal;font-size:5.99723px;font-family:'FiraCode Nerd Font Mono';-inkscape-font-specification:'FiraCode Nerd Font Mono, Normal';font-variant-ligatures:normal;font-variant-caps:normal;font-variant-numeric:normal;font-variant-east-asian:normal;fill:#000000;stroke-width:0.264583"
         x="30.910015"
         y="46.833897"
         id="text84"
         inkscape:label="OR"><tspan
           sodipodi:role="line"
           id="tspan84"
           style="stroke-width:0.264583"
           x="30.910015"
           y="46.833897">\/</tspan></text>
      <text
         xml:space="preserve"
         style="font-style:normal;font-variant:normal;font-weight:normal;font-stretch:normal;font-size:5.99723px;font-family:'FiraCode Nerd Font Mono';-inkscape-font-specification:'FiraCode Nerd Font Mono, Normal';font-variant-ligatures:normal;font-variant-caps:normal;font-variant-numeric:normal;font-variant-east-asian:normal;fill:#000000;stroke-width:0.264583"
         x="30.895464"
         y="36.933895"
         id="text85"
         inkscape:label="AND"><tspan
           sodipodi:role="line"
           id="tspan85"
           style="stroke-width:0.264583"
           x="30.895464"
           y="36.933895">/\</tspan></text>
      <path
         id="path85"
         style="font-size:5.99723px;font-family:'FiraCode Nerd Font Mono';-inkscape-font-specification:'FiraCode Nerd Font Mono, Normal';stroke-width:0.264583"
         d="m 13.523959,54.509585 -1.703829,1.903736 -0.42442,-0.359834 0.805782,-0.885745 q 0.123021,-0.132246 0.227588,-0.230663 0.107642,-0.09842 0.221436,-0.172228 H 7.6220679 v -0.510533 h 5.0284481 q -0.132247,-0.08304 -0.215285,-0.159926 -0.08304,-0.07996 -0.233739,-0.242965 L 11.39571,52.965682 11.82013,52.605849 Z M 7.6285005,34.597365 H 13.52021 v 0.498232 H 7.6285005 Z m 5.8954585,10.062217 -1.703829,1.903736 -0.42442,-0.359833 0.805782,-0.885745 q 0.123021,-0.132247 0.227588,-0.230663 0.107642,-0.09842 0.221436,-0.172228 H 7.6220679 v -0.510533 h 5.0284481 q -0.132247,-0.08304 -0.215285,-0.159927 -0.08304,-0.07996 -0.233739,-0.242964 L 11.39571,43.11568 11.82013,42.755846 Z m -5.4040839,-10.062735 -8e-7,20.165145 H 7.6216427 l 8e-7,-20.165145 z"
         inkscape:label="Normalling Indicator" />
      <path
         id="path86"
         d="m 29.190491,42.01769 h -0.54744 v -4.859294 q 0,-0.679686 0.17838,-1.208672 0.175303,-0.528987 0.513608,-0.959557 0.33523,-0.43057 0.861141,-0.864216 l 0.319852,0.319852 q -0.473627,0.433646 -0.753498,0.811933 -0.282946,0.381362 -0.427495,0.836536 -0.144548,0.45825 -0.144548,1.064124 z m -0.54744,7.496538 v -3.982776 q 0,-0.230663 -0.07074,-0.365985 -0.07074,-0.135322 -0.267569,-0.206058 -0.196832,-0.06766 -0.575119,-0.06766 v -0.473627 q 0.378287,0 0.575119,-0.07074 0.196832,-0.06766 0.267569,-0.206059 0.07074,-0.135322 0.07074,-0.365985 v -3.11856 h 0.54744 v 3.137013 q 0,0.289097 -0.06151,0.461325 -0.06151,0.172229 -0.196832,0.264494 -0.138398,0.09534 -0.378287,0.135322 0.230662,0.03998 0.36906,0.138397 0.138398,0.09842 0.202983,0.27372 0.06459,0.175304 0.06459,0.449023 v 3.998154 z m 0.54744,2.637243 q 0,0.60895 0.144548,1.064124 0.144549,0.45825 0.427495,0.836537 0.282947,0.378287 0.753498,0.811933 L 30.19618,55.183917 Q 29.670269,54.750271 29.335039,54.319701 28.99981,53.88913 28.824506,53.360144 28.646127,52.831157 28.646127,52.151471 v -3.998153 h 0.544364 z m -5.223627,-4.859397 h 0.547439 v 4.859294 q 0,0.679686 -0.178379,1.208672 -0.175304,0.528987 -0.513609,0.959557 -0.33523,0.43057 -0.861141,0.864216 l -0.319852,-0.319852 q 0.473627,-0.433646 0.753498,-0.811933 0.282946,-0.381362 0.427495,-0.836536 0.144549,-0.45825 0.144549,-1.064124 z m 0.547439,-7.496538 v 3.982776 q 0,0.230663 0.07074,0.365985 0.07074,0.135322 0.267568,0.206058 0.196833,0.06766 0.575119,0.06766 v 0.473628 q -0.378286,0 -0.575119,0.07074 -0.196832,0.06766 -0.267568,0.206059 -0.07074,0.135322 -0.07074,0.365985 v 3.118559 h -0.547439 v -3.137012 q 0,-0.289097 0.06151,-0.461326 0.06151,-0.172228 0.196832,-0.264493 0.138398,-0.09534 0.378287,-0.135322 -0.230663,-0.03998 -0.369061,-0.138398 -0.138397,-0.09842 -0.202983,-0.273719 -0.06459,-0.175304 -0.06459,-0.449024 v -3.998153 z m -0.547439,-2.637243 q 0,-0.60895 -0.144549,-1.064124 -0.144549,-0.45825 -0.427495,-0.836537 -0.282946,-0.378287 -0.753498,-0.811933 l 0.319852,-0.319852 q 0.525911,0.433646 0.861141,0.864216 0.33523,0.430571 0.510534,0.959557 0.178379,0.528986 0.178379,1.208673 v 3.998153 h -0.544364 z"
         style="font-size:5.99723px;font-family:'FiraCode Nerd Font Mono';-inkscape-font-specification:'FiraCode Nerd Font Mono, Normal';stroke-width:0.264583"
         inkscape:label="Brackets" />
    </g>
    <g
       inkscape:groupmode="layer"
       id="layer6"
       inkscape:label="Inverters"
       style="display:inline">
      <text
         xml:space="preserve"
         style="font-style:normal;font-variant:normal;font-weight:normal;font-stretch:normal;font-size:5.46765px;font-family:'FiraCode Nerd Font Mono';-inkscape-font-specification:'FiraCode Nerd Font Mono, Normal';font-variant-ligatures:normal;font-variant-caps:normal;font-variant-numeric:normal;font-variant-east-asian:normal;display:inline;fill:#000000;stroke-width:0.241221"
         x="46.120724"
         y="111.48064"
         id="text10-8-8"
         inkscape:label="Tilde3"
         transform="scale(1.0539622,0.94880065)"><tspan
           sodipodi:role="line"
           id="tspan10-5-9"
           style="stroke-width:0.241221"
           x="46.120724"
           y="111.48064">~</tspan></text>
      <text
         xml:space="preserve"
         style="font-style:normal;font-variant:normal;font-weight:normal;font-stretch:normal;font-size:5.46765px;font-family:'FiraCode Nerd Font Mono';-inkscape-font-specification:'FiraCode Nerd Font Mono, Normal';font-variant-ligatures:normal;font-variant-caps:normal;font-variant-numeric:normal;font-variant-east-asian:normal;display:inline;fill:#000000;stroke-width:0.241221"
         x="27.206507"
         y="111.48044"
         id="text10-8"
         inkscape:label="Tilde2"
         transform="scale(1.0539622,0.94880064)"><tspan
           sodipodi:role="line"
           id="tspan10-5"
           style="stroke-width:0.241221"
           x="27.206507"
           y="111.48044">~</tspan></text>
      <text
         xml:space="preserve"
         style="font-style:normal;font-variant:normal;font-weight:normal;font-stretch:normal;font-size:5.46765px;font-family:'FiraCode Nerd Font Mono';-inkscape-font-specification:'FiraCode Nerd Font Mono, Normal';font-variant-ligatures:normal;font-variant-caps:normal;font-variant-numeric:normal;font-variant-east-asian:normal;display:inline;fill:#000000;stroke-width:0.241221"
         x="46.120724"
         y="123.19714"
         id="text10-8-8-0"
         inkscape:label="Tilde3"
         transform="scale(1.0539622,0.94880065)"><tspan
           sodipodi:role="line"
           id="tspan10-5-9-3"
           style="stroke-width:0.241221"
           x="46.120724"
           y="123.19714">~</tspan></text>
      <text
         xml:space="preserve"
         style="font-style:normal;font-variant:normal;font-weight:normal;font-stretch:normal;font-size:5.46765px;font-family:'FiraCode Nerd Font Mono';-inkscape-font-specification:'FiraCode Nerd Font Mono, Normal';font-variant-ligatures:normal;font-variant-caps:normal;font-variant-numeric:normal;font-variant-east-asian:normal;display:inline;fill:#000000;stroke-width:0.241221"
         x="27.206507"
         y="123.19695"
         id="text10-8-0"
         inkscape:label="Tilde2"
         transform="scale(1.0539622,0.94880065)"><tspan
           sodipodi:role="line"
           id="tspan10-5-92"
           style="stroke-width:0.241221"
           x="27.206507"
           y="123.19695">~</tspan></text>
      <text
         xml:space="preserve"
         style="font-style:normal;font-variant:normal;font-weight:normal;font-stretch:normal;font-size:5.46765px;font-family:'FiraCode Nerd Font Mono';-inkscape-font-specification:'FiraCode Nerd Font Mono, Normal';font-variant-ligatures:normal;font-variant-caps:normal;font-variant-numeric:normal;font-variant-east-asian:normal;display:inline;fill:#000000;stroke-width:0.241221"
         x="8.2922888"
         y="123.19745"
         id="text10-8-3-5"
         inkscape:label="Tilde1"
         transform="scale(1.0539622,0.94880065)"><tspan
           sodipodi:role="line"
           id="tspan10-5-8-4"
           style="stroke-width:0.241221"
           x="8.2922888"
           y="123.19745">~</tspan></text>
      <text
         xml:space="preserve"
         style="font-style:normal;font-variant:normal;font-weight:normal;font-stretch:normal;font-size:5.46765px;font-family:'FiraCode Nerd Font Mono';-inkscape-font-specification:'FiraCode Nerd Font Mono, Normal';font-variant-ligatures:normal;font-variant-caps:normal;font-variant-numeric:normal;font-variant-east-asian:normal;display:inline;fill:#000000;stroke-width:0.241221"
         x="8.2922888"
         y="111.48091"
         id="text10-8-3"
         inkscape:label="Tilde1"
         transform="scale(1.0539622,0.94880065)"><tspan
           sodipodi:role="line"
           id="tspan10-5-8"
           style="stroke-width:0.241221"
           x="8.2922888"
           y="111.48091">~</tspan></text>
      <text
         xml:space="preserve"
         style="font-style:normal;font-variant:normal;font-weight:normal;font-stretch:normal;font-size:5.81529px;font-family:'FiraCode Nerd Font Mono';-inkscape-font-specification:'FiraCode Nerd Font Mono, Normal';font-variant-ligatures:normal;font-variant-caps:normal;font-variant-numeric:normal;font-variant-east-asian:normal;display:inline;fill:#000000;stroke-width:0.256556"
         x="5.5191083"
         y="118.82761"
         id="text98"
         transform="scale(1.1296241,0.88525023)"
         inkscape:label="divider"><tspan
           sodipodi:role="line"
           id="tspan98"
           style="stroke-width:0.256556"
           x="0"
           y="0">   │    │</tspan><tspan
           sodipodi:role="line"
           style="stroke-width:0.256556"
           x="0"
           y="0"
           id="tspan101">───┼────┼───</tspan><tspan
           sodipodi:role="line"
           style="stroke-width:0.256556"
           x="0"
           y="0"
           id="tspan99">   │    │</tspan></text>
    </g>
    <text
       xml:space="preserve"
       style="font-style:normal;font-variant:normal;font-weight:normal;font-stretch:normal;font-size:5.99722px;font-family:'FiraCode Nerd Font Mono';-inkscape-font-specification:'FiraCode Nerd Font Mono, Normal';font-variant-ligatures:normal;font-variant-caps:normal;font-variant-numeric:normal;font-variant-east-asian:normal;display:inline;fill:#000000;stroke-width:0.510785"
       x="8.1900015"
       y="7.0751944"
       id="text6"
       inkscape:label="Name"><tspan
         sodipodi:role="line"
         id="tspan6"
         style="font-style:normal;font-variant:normal;font-weight:normal;font-stretch:normal;font-size:5.99722px;font-family:'FiraCode Nerd Font Mono';-inkscape-font-specification:'FiraCode Nerd Font Mono, Normal';font-variant-ligatures:normal;font-variant-caps:normal;font-variant-numeric:normal;font-variant-east-asian:normal;stroke-width:0.510785"
         x="8.1900015"
         y="7.0751944">Bool's Realm</tspan></text>
  </g>
</svg>
